<svg width="17" height="18" viewBox="0 0 17 18" fill="none" xmlns="http://www.w3.org/2000/svg">
<g clip-path="url(#clip0_14_169)">
<path d="M16.0801 6.17605L9.99725 3.39248C9.36349 3.10667 8.84775 2.96998 8.33207 2.98241C7.82256 2.96998 7.30689 3.10667 6.66689 3.39248L0.590266 6.17605C0.192613 6.35624 0 6.67313 0 6.98998C0 7.3069 0.192613 7.61758 0.590266 7.80393L3.15016 8.97208L7.08318 7.12671C7.0459 7.08319 7.03349 7.0335 7.03349 6.98998C7.03349 6.59857 7.69207 6.30032 8.35695 6.30032C9.02799 6.30032 9.67416 6.59857 9.67416 6.98998C9.67416 7.39387 9.02799 7.69831 8.35695 7.69831C8.15189 7.69831 7.94682 7.66727 7.76664 7.61758L4.01381 9.3759L6.66689 10.5937C7.30689 10.8858 7.82256 11.01 8.33207 11.0038C8.84775 11.01 9.36349 10.8858 9.99725 10.5937L16.0801 7.80393C16.4777 7.61758 16.6704 7.3069 16.6704 6.98998C16.6704 6.67313 16.4777 6.35624 16.0801 6.17605ZM3.98895 10.2955V14.0732C5.0328 14.7069 6.52399 15.0922 8.33207 15.0922C11.9979 15.0922 14.359 13.5202 14.359 11.6624V9.52504L10.3514 11.358C9.62447 11.6935 8.96583 11.8613 8.33207 11.855C7.70454 11.8613 7.03973 11.6935 6.31274 11.358L3.98895 10.2955ZM2.31136 9.52504V11.6624C2.31136 12.203 2.62202 12.874 3.18122 13.4456V9.92893L2.31136 9.52504ZM3.18122 15.5147H3.98895V14.0732C3.67829 13.8868 3.4049 13.6755 3.18122 13.4456V15.5147ZM2.69037 15.5582V17.1923C2.69037 17.6832 3.00725 18 3.49811 18H3.66586C4.15671 18 4.4736 17.6832 4.4736 17.1923V15.5582C4.4736 15.0673 4.15671 14.7505 3.66586 14.7505H3.49811C3.00725 14.7505 2.69037 15.0673 2.69037 15.5582Z" fill="#FFE97F"/>
</g>
<defs>
<clipPath id="clip0_14_169">
<rect width="16.9002" height="18" fill="white"/>
</clipPath>
</defs>
</svg>
