<svg width="20" height="11" viewBox="0 0 20 11" fill="none" xmlns="http://www.w3.org/2000/svg">
<g clip-path="url(#clip0_14_173)">
<path d="M6.13194 6.90286C5.25848 7.66158 4.76615 8.63091 4.76615 9.50074C4.76615 9.75628 4.82911 9.99472 4.94971 10.1997H0.924855C0.257488 10.1997 0 9.93692 0 9.46399C0 8.00838 1.48187 6.25855 3.85181 6.25855C4.75068 6.25855 5.52179 6.51027 6.13194 6.90286ZM5.68048 3.43141C5.68048 4.57171 4.83447 5.45452 3.85181 5.45452C2.87441 5.45452 2.02312 4.57171 2.02312 3.44192C2.02312 2.32264 2.87966 1.46609 3.85181 1.46609C4.82921 1.46609 5.68048 2.30161 5.68048 3.43141Z" fill="#3BBEE0"/>
<path d="M19.8055 9.46399C19.8055 9.93692 19.548 10.1997 18.8807 10.1997H14.8622C14.9822 9.99472 15.0446 9.75628 15.0446 9.50074C15.0446 8.63026 14.5529 7.66013 13.679 6.90119C14.2886 6.50957 15.0593 6.25855 15.959 6.25855C18.3289 6.25855 19.8055 8.00838 19.8055 9.46399ZM17.7877 3.43141C17.7877 4.57171 16.9417 5.45452 15.959 5.45452C14.9816 5.45452 14.125 4.57171 14.125 3.44192C14.125 2.32264 14.9816 1.46609 15.959 1.46609C16.9364 1.46609 17.7877 2.30161 17.7877 3.43141Z" fill="#3BBEE0"/>
<path d="M9.9107 5.33367C11.0352 5.33367 12.0126 4.32474 12.0126 3.01102C12.0126 1.71307 11.0352 0.751434 9.9107 0.751434C8.78613 0.751434 7.80873 1.7341 7.80873 3.02153C7.80873 4.32474 8.78091 5.33367 9.9107 5.33367ZM6.37943 10.1997H13.4314C13.9937 10.1997 14.33 9.93693 14.33 9.50074C14.33 8.14501 12.6327 6.27431 9.90542 6.27431C7.1834 6.27431 5.48608 8.14501 5.48608 9.50074C5.48608 9.93693 5.82239 10.1997 6.37943 10.1997Z" fill="#3BBEE0"/>
</g>
<defs>
<clipPath id="clip0_14_173">
<rect width="20" height="10.9143" fill="white"/>
</clipPath>
</defs>
</svg>
