<svg width="20" height="14" viewBox="0 0 20 14" fill="none" xmlns="http://www.w3.org/2000/svg">
<g clip-path="url(#clip0_14_179)">
<path d="M1.50208 13.7147H18.0456C18.3829 13.7147 18.6666 13.4311 18.6666 13.0938C18.6666 12.7564 18.3829 12.4804 18.0456 12.4804H1.50208C1.16477 12.4804 0.888794 12.7564 0.888794 13.0938C0.888794 13.4311 1.16477 13.7147 1.50208 13.7147Z" fill="#BB81FF"/>
<path d="M4.3079 8.57837L17.4553 5.07497C18.9272 4.67633 20.0312 3.59541 19.6325 2.49914C19.2645 1.50255 17.7849 1.25723 16.4664 1.70187L11.859 3.2811C11.5371 3.38842 11.3071 3.38075 10.9391 3.20443L4.51488 0.168641C4.3079 0.0766475 4.07791 0.0536491 3.87093 0.114978L3.34196 0.275967C3.15798 0.337297 3.09665 0.551948 3.2653 0.728269L7.658 5.38928L7.80365 4.661L3.92459 5.99491L5.42715 6.0409L0.934793 4.44634C0.727811 4.37735 0.543824 4.40801 0.344504 4.592L0.122186 4.79899C-0.0311369 4.93698 -0.0388031 5.12097 0.0915215 5.25896L2.78234 8.27944C3.13498 8.67806 3.65627 8.75468 4.3079 8.57837Z" fill="#BB81FF"/>
</g>
<defs>
<clipPath id="clip0_14_179">
<rect width="20" height="13.7147" fill="white"/>
</clipPath>
</defs>
</svg>
