<svg width="868" height="495" viewBox="0 0 868 495" fill="none" xmlns="http://www.w3.org/2000/svg">
<path d="M1 493.192C142.781 388.177 227.212 351.941 387 337.692" stroke="white" stroke-width="3"/>
<path d="M415.499 355.691C315.433 295.054 436.744 326.604 402.499 302.691C405.715 292.272 408.046 285.398 415.499 266.692C446.297 206.534 481.817 154.732 564 43.6918C583.698 -0.285625 592.694 -11.4358 601 19.6918C581.864 161.092 646.045 216.911 804.5 302.692C826.291 310.757 822.768 314.611 809.5 321.192C880.055 360.224 905.289 378.4 762.5 362.192C743 364.692 720.123 348.72 759.5 350.192C760.815 334.99 763.836 329.482 781 335.192C800.5 338.192 809.297 334.55 800.5 318.692C625 304.692 698.594 261.749 676.5 249.191C609.5 192.692 580.5 85.1918 551.5 124.691C522.5 164.19 407.242 259.352 455 306.691C444.203 317.213 443.058 321.27 464.5 319.691C511.668 354.533 478.406 355.352 415.499 355.691Z" fill="white" stroke="white" stroke-width="3" stroke-linecap="round"/>
<path d="M755.5 266.192C714.99 245.393 693.872 230.799 659.5 198.692C688.996 162.985 700.71 139.553 709.5 89.1918C726.369 81.6949 736.625 133.255 755.5 266.192Z" fill="white" stroke="white" stroke-width="3" stroke-linecap="round"/>
</svg>
