<svg width="87" height="151" viewBox="0 0 87 151" fill="none" xmlns="http://www.w3.org/2000/svg">
<path d="M48.747 74.9815L41.926 71.3087L57.1421 34.0556L63.9631 37.7284L78.6544 92.2964L71.3087 88.6235L67.6359 74.9815L52.9445 67.1112L48.747 74.9815Z" stroke="white" stroke-width="0.5" stroke-linejoin="round"/>
<path d="M70.7841 33.0062L86.0001 89.1481L78.6544 92.2963M70.7841 33.0062L63.9631 29.3333L57.1421 34.0555M70.7841 33.0062L63.9631 37.7284" stroke="white" stroke-width="0.5" stroke-linejoin="round"/>
<path d="M48.7471 74.9815L56.0928 71.8333L56.6174 69.2099M55.5681 59.7654L60.2903 48.2222L65.0125 65.537L55.5681 59.7654ZM55.5681 59.7654L62.389 56.0926" stroke="white" stroke-width="0.5" stroke-linejoin="round"/>
<path d="M7.29614 51.3704L7.82083 5.19751L14.6418 8.87035V47.6975L32.4813 57.6666V65.537L7.29614 51.3704Z" stroke="white" stroke-width="0.5" stroke-linejoin="round"/>
<path d="M39.827 53.4691V61.3395L32.4813 65.537M39.827 53.4691L21.9875 43.5M39.827 53.4691L32.4813 57.6667M21.9875 43.5V4.67284M21.9875 43.5L14.6418 47.6975M21.9875 4.67284L15.1665 1L7.8208 5.19753M21.9875 4.67284L14.6418 8.87037" stroke="white" stroke-width="0.5" stroke-linejoin="round"/>
<path d="M1 66.0617V74.4568L12.5432 80.7531V119.056L19.3642 122.728L19.8889 84.9506L30.9074 90.9779V83.3765L1 66.0617Z" stroke="white" stroke-width="0.5" stroke-linejoin="round"/>
<path d="M38.2531 79.179L8.34568 61.8642L1 66.0617M38.2531 79.179V86.7804L30.9074 91.2469M38.2531 79.179L30.9074 83.3765M26.7099 88.6235V118.531L19.3642 122.728" stroke="white" stroke-width="0.5" stroke-linejoin="round"/>
<path d="M40.8765 99.1173L49.2715 95.4445M40.8765 99.1173V130.074L49.2715 142.667L63.4382 150.537L70.7839 146.864V115.907M40.8765 99.1173L48.7468 94.9198M49.2715 95.4445L62.9135 103.84M49.2715 95.4445L57.1419 91.2469M62.9135 103.84L70.7839 115.907M62.9135 103.84L70.7839 99.642M70.7839 115.907L78.6543 111.71" stroke="white" stroke-width="0.5" stroke-linejoin="round"/>
<path d="M48.7468 94.9198L57.1419 91.2469L70.7839 99.642L78.6542 111.71V142.667L70.7839 146.864" stroke="white" stroke-width="0.5" stroke-linejoin="round"/>
<path d="M51.895 135.846L60.2901 140.568L63.9629 138.994V134.796M51.895 135.846L48.2222 130.074M51.895 135.846L58.716 131.648M48.2222 130.074L47.6975 106.988L51.895 105.414L55.0432 107.303M48.2222 130.074L55.0432 126.401M55.0432 126.401V107.303M55.0432 126.401L58.716 131.648M55.0432 107.303L59.7654 110.136L63.9629 115.907V134.796M58.716 131.648L63.9629 134.796" stroke="white" stroke-width="0.5" stroke-linejoin="round"/>
</svg>
