<svg width="25" height="16" viewBox="0 0 25 16" fill="none" xmlns="http://www.w3.org/2000/svg">
<g clip-path="url(#clip0_80_38)">
<path d="M3.06641 15.4297H21.5137C23.5449 15.4297 24.5801 14.4141 24.5801 12.4023V3.01758C24.5801 1.01562 23.5449 0 21.5137 0H3.06641C1.01562 0 0 1.00586 0 3.01758V12.4023C0 14.4141 1.01562 15.4297 3.06641 15.4297ZM3.08594 13.8574C2.10938 13.8574 1.57227 13.3301 1.57227 12.3145V3.10547C1.57227 2.08984 2.10938 1.57227 3.08594 1.57227H21.4844C22.4512 1.57227 23.0078 2.08984 23.0078 3.10547V12.3145C23.0078 13.3301 22.4512 13.8574 21.4844 13.8574H3.08594ZM3.96484 5.43945H4.86328C5.13672 5.43945 5.30273 5.27344 5.30273 5.00977V4.11133C5.30273 3.83789 5.13672 3.67188 4.86328 3.67188H3.96484C3.70117 3.67188 3.53516 3.83789 3.53516 4.11133V5.00977C3.53516 5.27344 3.70117 5.43945 3.96484 5.43945ZM7.10938 5.43945H8.00781C8.27148 5.43945 8.4375 5.27344 8.4375 5.00977V4.11133C8.4375 3.83789 8.27148 3.67188 8.00781 3.67188H7.10938C6.83594 3.67188 6.66992 3.83789 6.66992 4.11133V5.00977C6.66992 5.27344 6.83594 5.43945 7.10938 5.43945ZM10.2539 5.43945H11.1426C11.416 5.43945 11.582 5.27344 11.582 5.00977V4.11133C11.582 3.83789 11.416 3.67188 11.1426 3.67188H10.2539C9.98047 3.67188 9.81445 3.83789 9.81445 4.11133V5.00977C9.81445 5.27344 9.98047 5.43945 10.2539 5.43945ZM13.3887 5.43945H14.2871C14.5605 5.43945 14.7266 5.27344 14.7266 5.00977V4.11133C14.7266 3.83789 14.5605 3.67188 14.2871 3.67188H13.3887C13.125 3.67188 12.959 3.83789 12.959 4.11133V5.00977C12.959 5.27344 13.125 5.43945 13.3887 5.43945ZM16.5332 5.43945H17.4316C17.6953 5.43945 17.8613 5.27344 17.8613 5.00977V4.11133C17.8613 3.83789 17.6953 3.67188 17.4316 3.67188H16.5332C16.2598 3.67188 16.0938 3.83789 16.0938 4.11133V5.00977C16.0938 5.27344 16.2598 5.43945 16.5332 5.43945ZM19.6777 5.43945H20.5664C20.8398 5.43945 21.0059 5.27344 21.0059 5.00977V4.11133C21.0059 3.83789 20.8398 3.67188 20.5664 3.67188H19.6777C19.4043 3.67188 19.2383 3.83789 19.2383 4.11133V5.00977C19.2383 5.27344 19.4043 5.43945 19.6777 5.43945ZM3.96484 8.58398H4.86328C5.13672 8.58398 5.30273 8.41797 5.30273 8.14453V7.25586C5.30273 6.98242 5.13672 6.81641 4.86328 6.81641H3.96484C3.70117 6.81641 3.53516 6.98242 3.53516 7.25586V8.14453C3.53516 8.41797 3.70117 8.58398 3.96484 8.58398ZM7.10938 8.58398H8.00781C8.27148 8.58398 8.4375 8.41797 8.4375 8.14453V7.25586C8.4375 6.98242 8.27148 6.81641 8.00781 6.81641H7.10938C6.83594 6.81641 6.66992 6.98242 6.66992 7.25586V8.14453C6.66992 8.41797 6.83594 8.58398 7.10938 8.58398ZM10.2539 8.58398H11.1426C11.416 8.58398 11.582 8.41797 11.582 8.14453V7.25586C11.582 6.98242 11.416 6.81641 11.1426 6.81641H10.2539C9.98047 6.81641 9.81445 6.98242 9.81445 7.25586V8.14453C9.81445 8.41797 9.98047 8.58398 10.2539 8.58398ZM13.3887 8.58398H14.2871C14.5605 8.58398 14.7266 8.41797 14.7266 8.14453V7.25586C14.7266 6.98242 14.5605 6.81641 14.2871 6.81641H13.3887C13.125 6.81641 12.959 6.98242 12.959 7.25586V8.14453C12.959 8.41797 13.125 8.58398 13.3887 8.58398ZM16.5332 8.58398H17.4316C17.6953 8.58398 17.8613 8.41797 17.8613 8.14453V7.25586C17.8613 6.98242 17.6953 6.81641 17.4316 6.81641H16.5332C16.2598 6.81641 16.0938 6.98242 16.0938 7.25586V8.14453C16.0938 8.41797 16.2598 8.58398 16.5332 8.58398ZM19.6777 8.58398H20.5664C20.8398 8.58398 21.0059 8.41797 21.0059 8.14453V7.25586C21.0059 6.98242 20.8398 6.81641 20.5664 6.81641H19.6777C19.4043 6.81641 19.2383 6.98242 19.2383 7.25586V8.14453C19.2383 8.41797 19.4043 8.58398 19.6777 8.58398ZM3.96484 11.7285H4.86328C5.13672 11.7285 5.30273 11.5625 5.30273 11.2891V10.3906C5.30273 10.127 5.13672 9.96094 4.86328 9.96094H3.96484C3.70117 9.96094 3.53516 10.127 3.53516 10.3906V11.2891C3.53516 11.5625 3.70117 11.7285 3.96484 11.7285ZM7.20703 11.7285H17.334C17.666 11.7285 17.8613 11.5332 17.8613 11.1914V10.4883C17.8613 10.1562 17.666 9.96094 17.334 9.96094H7.20703C6.86523 9.96094 6.66992 10.1562 6.66992 10.4883V11.1914C6.66992 11.5332 6.86523 11.7285 7.20703 11.7285ZM19.6777 11.7285H20.5664C20.8398 11.7285 21.0059 11.5625 21.0059 11.2891V10.3906C21.0059 10.127 20.8398 9.96094 20.5664 9.96094H19.6777C19.4043 9.96094 19.2383 10.127 19.2383 10.3906V11.2891C19.2383 11.5625 19.4043 11.7285 19.6777 11.7285Z" fill="white" fill-opacity="0.85"/>
</g>
<defs>
<clipPath id="clip0_80_38">
<rect width="24.9414" height="15.4395" fill="white"/>
</clipPath>
</defs>
</svg>
