<svg width="498" height="875" viewBox="0 0 498 875" fill="none" xmlns="http://www.w3.org/2000/svg">
<path d="M279.617 432.704L239.815 411.272L328.605 193.889L368.407 215.321L454.136 533.741L411.272 512.309L389.84 432.704L304.111 386.778L279.617 432.704Z" stroke="white" stroke-linejoin="round"/>
<path d="M408.21 187.765L497 515.37L454.136 533.741M408.21 187.765L368.407 166.333L328.605 193.889M408.21 187.765L368.407 215.321" stroke="white" stroke-linejoin="round"/>
<path d="M279.617 432.704L322.481 414.333L325.543 399.025M319.42 343.914L346.975 276.556L374.531 377.593L319.42 343.914ZM319.42 343.914L359.222 322.481" stroke="white" stroke-linejoin="round"/>
<path d="M37.7407 294.926L40.8025 25.4938L80.6049 46.9259V273.494L184.704 331.667V377.593L37.7407 294.926Z" stroke="white" stroke-linejoin="round"/>
<path d="M227.568 307.173V353.099L184.704 377.593M227.568 307.173L123.469 249M227.568 307.173L184.704 331.667M123.469 249V22.4321M123.469 249L80.6049 273.494M123.469 22.4321L83.6666 1L40.8024 25.4938M123.469 22.4321L80.6049 46.9259" stroke="white" stroke-linejoin="round"/>
<path d="M1 380.654V429.642L68.358 466.383V689.889L108.16 711.321L111.222 490.877L175.519 526.048V481.691L1 380.654Z" stroke="white" stroke-linejoin="round"/>
<path d="M218.383 457.198L43.8642 356.161L1 380.654M218.383 457.198V501.554L175.519 527.617M218.383 457.198L175.519 481.691M151.025 512.309V686.827L108.16 711.321" stroke="white" stroke-linejoin="round"/>
<path d="M233.691 573.543L282.679 552.111M233.691 573.543V754.185L282.679 827.667L365.346 873.593L408.21 852.161V671.519M233.691 573.543L279.617 549.049M282.679 552.111L362.284 601.099M282.679 552.111L328.605 527.617M362.284 601.099L408.21 671.519M362.284 601.099L408.21 576.605M408.21 671.519L454.136 647.025" stroke="white" stroke-linejoin="round"/>
<path d="M279.617 549.049L328.605 527.617L408.21 576.605L454.136 647.025V827.667L408.21 852.161" stroke="white" stroke-linejoin="round"/>
<path d="M297.988 787.864L346.975 815.42L368.407 806.235V781.741M297.988 787.864L276.556 754.185M297.988 787.864L337.79 763.37M276.556 754.185L273.494 619.469L297.988 610.284L316.358 621.306M276.556 754.185L316.358 732.753M316.358 732.753V621.306M316.358 732.753L337.79 763.37M316.358 621.306L343.914 637.84L368.407 671.519V781.741M337.79 763.37L368.407 781.741" stroke="white" stroke-linejoin="round"/>
</svg>
